<?xml version="1.0" encoding="utf-8"?>
<!-- Generator: Adobe Illustrator 26.0.1, SVG Export Plug-In . SVG Version: 6.00 Build 0)  -->
<svg version="1.1" id="Layer_1" xmlns="http://www.w3.org/2000/svg" xmlns:xlink="http://www.w3.org/1999/xlink" x="0px" y="0px"
	 viewBox="0 0 200 70" style="enable-background:new 0 0 200 70;" xml:space="preserve">
<style type="text/css">
	.st0{fill:none;stroke:url(#SVGID_1_);stroke-width:3;stroke-miterlimit:10;}
	.st1{fill:none;stroke:url(#SVGID_00000012470111159597522090000017650901400913326475_);stroke-width:3;stroke-miterlimit:10;}
	.st2{fill:#F2F2F2;}
	.st3{font-family:'Corbel';}
	.st4{font-size:33.4207px;}
</style>
<linearGradient id="SVGID_1_" gradientUnits="userSpaceOnUse" x1="22.9167" y1="12.3129" x2="64.5865" y2="12.3129" gradientTransform="matrix(0.5 -0.866 0.866 0.5 -3.1 63.939)">
	<stop  offset="1.398057e-07" style="stop-color:#3498DB"/>
	<stop  offset="8.409511e-02" style="stop-color:#3D92DE"/>
	<stop  offset="0.2239" style="stop-color:#5780E7"/>
	<stop  offset="0.4011" style="stop-color:#8064F6"/>
	<stop  offset="0.5" style="stop-color:#9A52FF"/>
	<stop  offset="0.9944" style="stop-color:#B97FC5"/>
</linearGradient>
<path class="st0" d="M16.6,23.1l16.7,7.7c0.4,0.2,0.8,0.2,1.2,0l16.7-7.7c1.6-0.7,2.9,1.5,1.4,2.5l-15,10.6c-0.3,0.2-0.6,0.6-0.6,1
	l-1.7,18.3c-0.2,1.8-2.7,1.8-2.9,0l-1.7-18.3c0-0.4-0.3-0.8-0.6-1l-15-10.6C13.8,24.6,15,22.4,16.6,23.1z"/>
<linearGradient id="SVGID_00000065037129574911439630000014256524076293534627_" gradientUnits="userSpaceOnUse" x1="22.9188" y1="12.3109" x2="64.5886" y2="12.3109" gradientTransform="matrix(1 0 0 1 -9.6553 17.3402)">
	<stop  offset="1.398057e-07" style="stop-color:#3498DB"/>
	<stop  offset="8.409511e-02" style="stop-color:#3D92DE"/>
	<stop  offset="0.2239" style="stop-color:#5780E7"/>
	<stop  offset="0.4011" style="stop-color:#8064F6"/>
	<stop  offset="0.5" style="stop-color:#9A52FF"/>
	<stop  offset="0.9944" style="stop-color:#B97FC5"/>
</linearGradient>
<path style="fill:none;stroke:url(#SVGID_00000065037129574911439630000014256524076293534627_);stroke-width:3;stroke-miterlimit:10;" d="
	M35.5,14l1.7,18.3c0,0.4,0.3,0.8,0.6,1l15,10.6c1.4,1,0.2,3.2-1.4,2.5l-16.7-7.7c-0.4-0.2-0.8-0.2-1.2,0l-16.7,7.7
	c-1.6,0.7-2.9-1.5-1.4-2.5l15-10.6c0.3-0.2,0.6-0.6,0.6-1L32.7,14C32.8,12.3,35.4,12.3,35.5,14z"/>
<text transform="matrix(1.0033 0 0 1 60.4414 43.9727)" class="st2 st3 st4">Star Dust</text>
</svg>
